<svg xmlns="http://www.w3.org/2000/svg" width="192.457" height="63.661" viewBox="0 0 192.457 63.661"><g transform="translate(-405.596 -89)"><g transform="translate(-2103.404 502)"><path d="M375.571,186.544a31.823,31.823,0,1,1-57.492,27.282A31.355,31.355,0,0,0,345.39,230.4a30.41,30.41,0,0,0,0-60.819,31.02,31.02,0,0,0-13.441,3.1,31.818,31.818,0,0,1,43.623,13.86Z" transform="translate(2190.961 -581.854)" fill="#fff" fill-rule="evenodd"/><path d="M351.384,192.276a25.449,25.449,0,0,1,14.943,10.171,27.162,27.162,0,0,1,4.173,23.394c2.966-13.014-5.285-26.132-18.289-29.583-11.379-3.023-24.507,1.892-27.321,15.818l-4.838,1.322a25.4,25.4,0,0,1,31.332-21.122Zm-20.2,24.668c5.466,4.972,15.657,7.6,26.9,3.612a55.643,55.643,0,0,1-3.479,7.243,25.611,25.611,0,0,1-7.785.6,12.512,12.512,0,0,0,6.121,1.74c-1.673,2.2-5.047,7.462-7.747,11.055a48.83,48.83,0,0,1-5.029-.371,27.334,27.334,0,0,0,3.8,1.987c-1.16,1.331-2.177,2.205-2.909,2.253-12.909-2.871-21.331-12.748-22.919-23.594Zm-3.242-4.3a12.722,12.722,0,0,0,2.177,3.232l-12.149,4.2a25.939,25.939,0,0,1,0-4.705Z" transform="translate(2191.136 -600.285)" fill="#fff" fill-rule="evenodd"/><path d="M323.246,215.1l3.641-1a20.348,20.348,0,0,1,10.979-14.468,24.487,24.487,0,0,1,16.968-1.445,26.125,26.125,0,0,1,16.806,13.869c.343.713.656,1.445.932,2.186a28.2,28.2,0,0,0-4.23-8.983,24.9,24.9,0,0,0-14.611-9.953,25.286,25.286,0,0,0-18.185,2.434,24.8,24.8,0,0,0-12.3,17.358Zm36.294,8.878a31.548,31.548,0,0,1-14.687,1.169,23.14,23.14,0,0,1-11.312-5.066l-12.282,4.249a27.087,27.087,0,0,0,6.987,14.021,29.8,29.8,0,0,0,15.324,8.622,5.307,5.307,0,0,0,1.93-1.483,26.376,26.376,0,0,1-3.156-1.7l-2-1.255,2.348.209c1.53.133,3.146.371,4.686.361.922-1.236,1.806-2.491,2.681-3.764q1.383-2,2.747-4.012c.514-.751,1.027-1.511,1.569-2.243a11.676,11.676,0,0,1-5.4-1.74l-1.844-1.236,2.215.2c.57.048,1.141.067,1.711.076a28.083,28.083,0,0,0,3.346-.2,17.635,17.635,0,0,0,2.32-.4,25.012,25.012,0,0,0,1.511-2.871c.457-.97.884-1.949,1.3-2.937ZM330.109,215.8l-9.116,2.5a25.13,25.13,0,0,0-.029,3.479l10.656-3.689a13.107,13.107,0,0,1-1.512-2.291Z" transform="translate(2188.655 -602.763)" fill="#fff" fill-rule="evenodd" style="mix-blend-mode:screen;isolation:isolate"/><path d="M341.27,343.483l.295,4.344,1.768-1.54-1.53,1.758,4.335.314-4.335.295,1.53,1.768-1.759-1.54-.3,4.344-.295-4.344-1.777,1.54,1.54-1.759-4.335-.3,4.335-.3-1.54-1.768,1.768,1.54Z" transform="translate(2176.079 -723.688)" fill="#fff" fill-rule="evenodd"/><path d="M398.789,366.615l.4,5.884,2.405-2.091-2.091,2.4,5.884.409-5.884.409,2.091,2.4-2.4-2.082-.409,5.884-.409-5.884-2.4,2.082,2.082-2.386-5.884-.418,5.884-.4-2.082-2.4,2.386,2.091Z" transform="translate(2130.774 -742.476)" fill="#fff" fill-rule="evenodd"/><path d="M409.419,240.881l.4,5.884,2.405-2.091-2.082,2.4,5.884.409-5.894.409,2.091,2.4-2.386-2.082-.419,5.884-.4-5.884-2.4,2.082L408.7,247.9l-5.884-.418,5.884-.4-2.082-2.405L409,246.766Z" transform="translate(2122.14 -640.355)" fill="#fff" fill-rule="evenodd"/><path d="M478.038,277.983l.295,4.344,1.768-1.54-1.54,1.759,4.344.3-4.344.295,1.54,1.778-1.759-1.54-.3,4.335-.3-4.335-1.768,1.54,1.54-1.768-4.335-.3,4.335-.295-1.54-1.768,1.759,1.53Z" transform="translate(2064.996 -670.489)" fill="#fff" fill-rule="evenodd"/></g><g transform="translate(0 -5.672)"><path d="M18.6-.22V0H13.682L9.756-7.705H6.431V0h-4.6V-21.328H9.888a11.061,11.061,0,0,1,4.255.74,5.864,5.864,0,0,1,2.732,2.183,6.256,6.256,0,0,1,.952,3.523,6.471,6.471,0,0,1-.981,3.713,6.62,6.62,0,0,1-2.812,2.278ZM6.431-11.426H9.888a3.449,3.449,0,0,0,2.49-.82,2.989,2.989,0,0,0,.85-2.256,3.043,3.043,0,0,0-.842-2.285,3.444,3.444,0,0,0-2.5-.82H6.431ZM37.4-7.31a7.816,7.816,0,0,1-1.04,4.131A6.626,6.626,0,0,1,33.464-.586,9.891,9.891,0,0,1,29.18.293a10.025,10.025,0,0,1-4.314-.879,6.61,6.61,0,0,1-2.908-2.593,7.816,7.816,0,0,1-1.04-4.131V-21.328h4.614V-7.31q0,3.9,3.647,3.9a3.6,3.6,0,0,0,2.7-.945A4.09,4.09,0,0,0,32.8-7.31V-21.328h4.6ZM53.789,0,45.5-13.755V0H40.9V-21.328h4.6L53.789-7.573V-21.328h4.585V0ZM68.716-21.328a9.963,9.963,0,0,1,5.076,1.282,8.957,8.957,0,0,1,3.464,3.6,11.06,11.06,0,0,1,1.245,5.31v.938a11.049,11.049,0,0,1-1.245,5.317,8.954,8.954,0,0,1-3.472,3.6A10.033,10.033,0,0,1,68.687,0H62.065V-21.328h6.65Zm5.112,10.166a7.594,7.594,0,0,0-1.3-4.8,4.574,4.574,0,0,0-3.809-1.641H66.665v13.9h2.021A4.59,4.59,0,0,0,72.51-5.369,7.63,7.63,0,0,0,73.828-10.2ZM95.947-3.706V0h-14.4V-21.328H95.933v3.721H86.147v4.849h8.335V-9.17H86.147v5.464ZM110-21.328h5.259l-6.138,10.576L115.415,0H110.1l-3.97-7.383L102.158,0H96.841l6.3-10.752L97-21.328h5.273l3.853,7.251Z" transform="translate(480 127)" fill="#fff"/><path d="M5.852.112A5.41,5.41,0,0,1,3.2-.539,4.79,4.79,0,0,1,1.344-2.331,4.967,4.967,0,0,1,.672-4.9a4.967,4.967,0,0,1,.672-2.569A4.777,4.777,0,0,1,3.206-9.261a5.45,5.45,0,0,1,2.66-.651,5.552,5.552,0,0,1,2.1.385A4.3,4.3,0,0,1,9.59-8.386L8.68-7.5A3.651,3.651,0,0,0,5.922-8.666a4,4,0,0,0-1.974.49A3.553,3.553,0,0,0,2.569-6.825a3.78,3.78,0,0,0-.5,1.925,3.78,3.78,0,0,0,.5,1.925A3.553,3.553,0,0,0,3.948-1.624a4,4,0,0,0,1.974.49A3.659,3.659,0,0,0,8.68-2.31l.91.882A4.355,4.355,0,0,1,7.959-.28,5.517,5.517,0,0,1,5.852.112Zm5.544-10.5H12.74V0H11.4Zm10.612,6.72a3.852,3.852,0,0,1-.028.406H15.96a2.33,2.33,0,0,0,.861,1.575,2.81,2.81,0,0,0,1.827.6,2.752,2.752,0,0,0,2.142-.9l.742.868a3.25,3.25,0,0,1-1.253.9,4.361,4.361,0,0,1-1.673.308A4.382,4.382,0,0,1,16.52-.4,3.445,3.445,0,0,1,15.113-1.75a3.873,3.873,0,0,1-.5-1.96A3.933,3.933,0,0,1,15.1-5.656a3.46,3.46,0,0,1,1.33-1.351A3.789,3.789,0,0,1,18.34-7.49a3.712,3.712,0,0,1,1.9.483,3.392,3.392,0,0,1,1.3,1.351A4.116,4.116,0,0,1,22.008-3.668ZM18.34-6.356a2.323,2.323,0,0,0-1.617.588,2.37,2.37,0,0,0-.763,1.54h4.76a2.386,2.386,0,0,0-.763-1.533A2.307,2.307,0,0,0,18.34-6.356ZM26.362-7.49a3.356,3.356,0,0,1,2.359.756A2.919,2.919,0,0,1,29.54-4.48V0H28.266V-.98a2.124,2.124,0,0,1-.959.791A3.66,3.66,0,0,1,25.83.084a3.091,3.091,0,0,1-2-.6A1.931,1.931,0,0,1,23.086-2.1,1.948,1.948,0,0,1,23.8-3.675a3.519,3.519,0,0,1,2.268-.595H28.2v-.266a1.714,1.714,0,0,0-.5-1.33,2.126,2.126,0,0,0-1.484-.462,3.929,3.929,0,0,0-1.288.217,3.318,3.318,0,0,0-1.064.581L23.3-6.538a4.064,4.064,0,0,1,1.372-.707A5.741,5.741,0,0,1,26.362-7.49ZM26.054-.952a2.5,2.5,0,0,0,1.33-.343,1.963,1.963,0,0,0,.812-.973V-3.3H26.124q-1.708,0-1.708,1.148a1.039,1.039,0,0,0,.434.882A1.984,1.984,0,0,0,26.054-.952Zm9.94-6.538a3.066,3.066,0,0,1,2.247.819,3.221,3.221,0,0,1,.833,2.4V0H37.73V-4.116a2.278,2.278,0,0,0-.518-1.624,1.948,1.948,0,0,0-1.484-.546,2.312,2.312,0,0,0-1.722.637,2.489,2.489,0,0,0-.63,1.827V0H32.032V-7.42H33.32V-6.3a2.612,2.612,0,0,1,1.1-.882A3.84,3.84,0,0,1,35.994-7.49Zm5.572.07H42.91V0H41.566Zm.672-1.428a.9.9,0,0,1-.651-.252.827.827,0,0,1-.259-.616.849.849,0,0,1,.259-.623.883.883,0,0,1,.651-.259.91.91,0,0,1,.651.245.8.8,0,0,1,.259.609.866.866,0,0,1-.259.637A.883.883,0,0,1,42.238-8.848Zm7.2,1.358a3.066,3.066,0,0,1,2.247.819,3.221,3.221,0,0,1,.833,2.4V0H51.17V-4.116a2.278,2.278,0,0,0-.518-1.624,1.948,1.948,0,0,0-1.484-.546,2.312,2.312,0,0,0-1.722.637,2.489,2.489,0,0,0-.63,1.827V0H45.472V-7.42H46.76V-6.3a2.612,2.612,0,0,1,1.1-.882A3.84,3.84,0,0,1,49.434-7.49Zm12.712.07v6.412a3.832,3.832,0,0,1-.966,2.877A4.006,4.006,0,0,1,58.3,2.8a6.9,6.9,0,0,1-2-.287,3.963,3.963,0,0,1-1.54-.819L55.4.658a3.8,3.8,0,0,0,1.281.707,4.867,4.867,0,0,0,1.575.259,2.642,2.642,0,0,0,1.925-.616A2.534,2.534,0,0,0,60.8-.868v-.588A2.974,2.974,0,0,1,59.633-.6a3.9,3.9,0,0,1-1.505.287A4.056,4.056,0,0,1,56.2-.763a3.385,3.385,0,0,1-1.351-1.274,3.569,3.569,0,0,1-.49-1.869,3.569,3.569,0,0,1,.49-1.869A3.336,3.336,0,0,1,56.2-7.042a4.107,4.107,0,0,1,1.925-.448,3.932,3.932,0,0,1,1.561.308,2.9,2.9,0,0,1,1.183.91V-7.42ZM58.282-1.484a2.751,2.751,0,0,0,1.309-.308,2.278,2.278,0,0,0,.91-.861,2.4,2.4,0,0,0,.329-1.253,2.271,2.271,0,0,0-.714-1.743,2.584,2.584,0,0,0-1.834-.665,2.6,2.6,0,0,0-1.848.665,2.271,2.271,0,0,0-.714,1.743,2.4,2.4,0,0,0,.329,1.253,2.278,2.278,0,0,0,.91.861A2.781,2.781,0,0,0,58.282-1.484ZM71.526.112a6.707,6.707,0,0,1-2.135-.343,4.384,4.384,0,0,1-1.617-.889l.518-1.092a4.289,4.289,0,0,0,1.435.819,5.272,5.272,0,0,0,1.8.315,3.24,3.24,0,0,0,1.82-.413,1.273,1.273,0,0,0,.6-1.1,1.083,1.083,0,0,0-.329-.819,2.2,2.2,0,0,0-.812-.483q-.483-.168-1.365-.378A14.067,14.067,0,0,1,69.657-4.8,2.951,2.951,0,0,1,68.5-5.621a2.187,2.187,0,0,1-.483-1.491,2.523,2.523,0,0,1,.413-1.414,2.837,2.837,0,0,1,1.253-1.008,5.083,5.083,0,0,1,2.086-.378,6.6,6.6,0,0,1,1.708.224,4.544,4.544,0,0,1,1.442.644l-.462,1.12a5.069,5.069,0,0,0-1.316-.595,4.912,4.912,0,0,0-1.372-.2,3.023,3.023,0,0,0-1.785.434,1.329,1.329,0,0,0-.6,1.12,1.071,1.071,0,0,0,.336.819,2.331,2.331,0,0,0,.833.49,13.015,13.015,0,0,0,1.351.371,13.686,13.686,0,0,1,1.778.532,2.993,2.993,0,0,1,1.155.812,2.139,2.139,0,0,1,.483,1.47,2.5,2.5,0,0,1-.42,1.407A2.813,2.813,0,0,1,73.626-.259,5.27,5.27,0,0,1,71.526.112Zm12.348-3.78a3.851,3.851,0,0,1-.028.406h-6.02a2.33,2.33,0,0,0,.861,1.575,2.81,2.81,0,0,0,1.827.6,2.752,2.752,0,0,0,2.142-.9l.742.868a3.25,3.25,0,0,1-1.253.9,4.361,4.361,0,0,1-1.673.308A4.382,4.382,0,0,1,78.386-.4,3.445,3.445,0,0,1,76.979-1.75a3.873,3.873,0,0,1-.5-1.96,3.933,3.933,0,0,1,.483-1.946A3.46,3.46,0,0,1,78.3-7.007a3.789,3.789,0,0,1,1.911-.483,3.712,3.712,0,0,1,1.9.483,3.392,3.392,0,0,1,1.3,1.351A4.116,4.116,0,0,1,83.874-3.668ZM80.206-6.356a2.323,2.323,0,0,0-1.617.588,2.37,2.37,0,0,0-.763,1.54h4.76a2.386,2.386,0,0,0-.763-1.533A2.307,2.307,0,0,0,80.206-6.356Zm6.818.182a2.293,2.293,0,0,1,1.036-.98,3.76,3.76,0,0,1,1.666-.336v1.3a2.624,2.624,0,0,0-.308-.014,2.261,2.261,0,0,0-1.715.651A2.577,2.577,0,0,0,87.08-3.7V0H85.736V-7.42h1.288ZM98.252-7.42,95,0H93.632L90.384-7.42h1.4l2.548,5.95,2.6-5.95Zm1.26,0h1.344V0H99.512Zm.672-1.428a.9.9,0,0,1-.651-.252.827.827,0,0,1-.259-.616.849.849,0,0,1,.259-.623.883.883,0,0,1,.651-.259.91.91,0,0,1,.651.245.8.8,0,0,1,.259.609.866.866,0,0,1-.259.637A.883.883,0,0,1,100.184-8.848ZM106.652.084a4.121,4.121,0,0,1-2.023-.49,3.59,3.59,0,0,1-1.393-1.351,3.793,3.793,0,0,1-.5-1.953,3.793,3.793,0,0,1,.5-1.953,3.541,3.541,0,0,1,1.393-1.344,4.169,4.169,0,0,1,2.023-.483,3.883,3.883,0,0,1,1.8.406,2.892,2.892,0,0,1,1.225,1.176l-1.022.658a2.283,2.283,0,0,0-.868-.8,2.476,2.476,0,0,0-1.148-.266,2.654,2.654,0,0,0-1.309.322,2.3,2.3,0,0,0-.91.917,2.774,2.774,0,0,0-.329,1.365,2.8,2.8,0,0,0,.329,1.379,2.3,2.3,0,0,0,.91.917,2.654,2.654,0,0,0,1.309.322,2.476,2.476,0,0,0,1.148-.266,2.283,2.283,0,0,0,.868-.8l1.022.644a2.936,2.936,0,0,1-1.225,1.183A3.829,3.829,0,0,1,106.652.084Zm11.354-3.752a3.851,3.851,0,0,1-.028.406h-6.02a2.33,2.33,0,0,0,.861,1.575,2.81,2.81,0,0,0,1.827.6,2.752,2.752,0,0,0,2.142-.9l.742.868a3.25,3.25,0,0,1-1.253.9A4.361,4.361,0,0,1,114.6.084,4.382,4.382,0,0,1,112.518-.4a3.445,3.445,0,0,1-1.407-1.351,3.873,3.873,0,0,1-.5-1.96,3.933,3.933,0,0,1,.483-1.946,3.46,3.46,0,0,1,1.33-1.351,3.789,3.789,0,0,1,1.911-.483,3.712,3.712,0,0,1,1.9.483,3.392,3.392,0,0,1,1.3,1.351A4.116,4.116,0,0,1,118.006-3.668Zm-3.668-2.688a2.323,2.323,0,0,0-1.617.588,2.37,2.37,0,0,0-.763,1.54h4.76a2.386,2.386,0,0,0-.763-1.533A2.307,2.307,0,0,0,114.338-6.356Z" transform="translate(480.047 144.88)" fill="#fff"/></g></g></svg>