<svg xmlns="http://www.w3.org/2000/svg" width="54.521" height="59" viewBox="0 0 54.521 59"><g transform="translate(-0.001 0.002)"><path d="M211.6,227.66v1.614l-12.2,2.312H196.58l-12.2-2.312V227.66Zm0,0" transform="translate(-158.069 -195.221)" fill="#00acea"/><path d="M211.6,199.906v1.007H184.378v-4.452H211.6Zm0,0" transform="translate(-158.069 -168.468)" fill="#00efd1"/><path d="M272.715,255.172v17.756a1.413,1.413,0,0,1-2.824,0V255.172Zm0,0" transform="translate(-231.38 -218.837)" fill="#fedb41"/><path d="M137.012,23.672h3.8v4.6h-3.8Zm0,0" transform="translate(-117.461 -20.296)" fill="#fedb41"/><path d="M63.214,254.244V263.1a1.585,1.585,0,0,1-1.585,1.585H47.789V246.707A5.708,5.708,0,0,1,53.5,241h5.2A19.924,19.924,0,0,1,63.214,254.244Zm0,0" transform="translate(-40.969 -206.687)" fill="#00acea"/><path d="M32.7,23.672v4.6H28.9a3.171,3.171,0,0,0-3.17,3.17v8.4H18.907V31.6L15.34,28.031l4.36-4.359Zm0,0" transform="translate(-13.15 -20.296)" fill="#00acea"/><path d="M23.738,170.887h-5.2a5.708,5.708,0,0,0-5.707,5.707v17.978H10.182a3.17,3.17,0,0,1-3.17-3.17l.011-19.865A15.3,15.3,0,0,1,9.6,163.01a18.8,18.8,0,0,1,3.376-3.791h5.612v3.209a7.292,7.292,0,0,0,2.183,5.185,36,36,0,0,1,2.97,3.275Zm0,0" transform="translate(-6.01 -136.574)" fill="#00efd1"/><path d="M41.545,140.171H40.34V137h6.818v3.17Zm0,0" transform="translate(-34.583 -117.479)" fill="#fedb41"/><g transform="translate(0.001 -0.002)"><path d="M4.172,73.57H20.66a2.61,2.61,0,0,0,2.613-2.581V62.145A20.928,20.928,0,0,0,18.526,48.3a37.062,37.062,0,0,0-3.061-3.362,6.248,6.248,0,0,1-1.894-4.469V25.7a2.173,2.173,0,0,1,1.963-2.158A14.059,14.059,0,0,0,16.31,27.7a10.138,10.138,0,0,0,7.613,6.736,1,1,0,1,0,.45-1.944,8.1,8.1,0,0,1-6.158-5.39,11.776,11.776,0,0,1-.679-3.551h5.819a1.066,1.066,0,0,0,1.06-1.013V17.947A1.014,1.014,0,0,0,23.355,17H6.55a.979.979,0,0,0-.706.268L1.484,21.607a1.007,1.007,0,0,0-.017,1.4l3.258,3.268V37.263a1.006,1.006,0,0,0,.184.552,19.637,19.637,0,0,0-2.159,2.678A16.193,16.193,0,0,0,.01,49.566L0,69.407A4.173,4.173,0,0,0,4.172,73.57Zm17.1-11.426V70.99a.612.612,0,0,1-.615.586H7.863V54.617a4.674,4.674,0,0,1,4.664-4.7h4.712a18.774,18.774,0,0,1,4.036,12.23Zm-9.7-25.91H6.789l-.067-.009V35.094h4.851ZM22.417,21.557H20.562V18.992h1.855Zm-15.971,3.6L3.594,22.324l3.37-3.333h11.6v2.565h-2.82A4.16,4.16,0,0,0,11.573,25.7V33.1H6.722V25.863a.984.984,0,0,0-.275-.705ZM2.011,49.568a14.263,14.263,0,0,1,2.4-7.978A18.011,18.011,0,0,1,7.341,38.23h4.232v2.239a8.332,8.332,0,0,0,2.481,5.888c.546.538,1.047,1.057,1.51,1.563H12.527a6.671,6.671,0,0,0-6.662,6.7V71.575H4.172A2.172,2.172,0,0,1,2,69.407Zm0,0" transform="translate(-0.001 -14.57)" fill="#083863"/><path d="M209.935,34a1,1,0,0,0-1-1h-4.6a1,1,0,1,0,0,2h4.6A1,1,0,0,0,209.935,34Zm0,0" transform="translate(-174.326 -28.291)" fill="#083863"/><path d="M193.223,3.581a1,1,0,0,0,.325-.055l4.6-1.585a1,1,0,1,0-.651-1.888l-4.6,1.585a1,1,0,0,0,.326,1.944Zm0,0" transform="translate(-164.795 0.002)" fill="#083863"/><path d="M192.9,57.5l4.6,1.585a1,1,0,0,0,.651-1.889l-4.6-1.585A1,1,0,0,0,192.9,57.5Zm0,0" transform="translate(-164.8 -47.631)" fill="#083863"/><path d="M75.788,311a1,1,0,1,0,0,2h6.136a1,1,0,1,0,0-2Zm0,0" transform="translate(-64.118 -266.681)" fill="#083863"/><path d="M80.639,349H75.788a1,1,0,0,0,0,2h4.851a1,1,0,1,0,0-2Zm0,0" transform="translate(-64.118 -299.275)" fill="#083863"/><path d="M177.1,190.065v6.065a1.03,1.03,0,0,0,.848.982l11.423,2.158V216.2a2.38,2.38,0,0,0,.691,1.7,2.443,2.443,0,0,0,4.16-1.7V199.269l11.351-2.158a.967.967,0,0,0,.777-.982v-6.065a1.046,1.046,0,0,0-.986-1.065H178.14a1.091,1.091,0,0,0-1.038,1.065Zm15.97,7.354h-2.636l-10.175-1.855h22.987Zm-.845,18.779a.439.439,0,0,1-.443.412.414.414,0,0,1-.414-.412V199.416h.856ZM179.1,191h25.255v2.568H179.1Zm0,0" transform="translate(-151.832 -162.104)" fill="#083863"/></g></g></svg>